<?xml version="1.0" encoding="UTF-8"?>
<svg width="19px" height="19px" viewBox="0 0 19 19" version="1.1" xmlns="http://www.w3.org/2000/svg" xmlns:xlink="http://www.w3.org/1999/xlink">
    <!-- Generator: Sketch 53 (72520) - https://sketchapp.com -->
    <title>Shape</title>
    <desc>Created with Sketch.</desc>
    <g id="VD-4" stroke="none" stroke-width="1" fill="none" fill-rule="evenodd">
        <g id="4.3" transform="translate(-1364.000000, -102.000000)" fill="#FFFFFF" fill-rule="nonzero">
            <g id="Group-2" transform="translate(1051.000000, 89.000000)">
                <path d="M324.612394,13 C320.540553,13 317.224787,16.3157653 317.224787,20.3876063 C317.224787,22.1565916 317.845231,23.7784024 318.886999,25.0510328 L313,30.9380316 L314.061968,32 L319.948967,26.1130012 C321.221598,27.154769 322.843408,27.7752126 324.612394,27.7752126 C328.684235,27.7752126 332,24.4594473 332,20.3876063 C332,16.3157653 328.684235,13 324.612394,13 Z M324.612394,14.4775213 C327.884873,14.4775213 330.522479,17.115128 330.522479,20.3876063 C330.522479,23.6600854 327.884873,26.2976914 324.612394,26.2976914 C321.339915,26.2976914 318.702309,23.6600854 318.702309,20.3876063 C318.702309,17.115128 321.339915,14.4775213 324.612394,14.4775213 Z" id="Shape"></path>
            </g>
        </g>
    </g>
</svg>