<?xml version="1.0" encoding="utf-8"?>
<!-- Generator: Adobe Illustrator 21.0.0, SVG Export Plug-In . SVG Version: 6.00 Build 0)  -->
<svg  width="16px" height="16px" version="1.1" id="Layer_1" xmlns="http://www.w3.org/2000/svg" xmlns:xlink="http://www.w3.org/1999/xlink" x="0px" y="0px"
	 viewBox="0 0 400 400" style="enable-background:new 0 0 400 400;" xml:space="preserve">
<path id="XMLID_1375_" class="st0" d="M345.7,217.3c0.8-6.3,1.4-12.5,1.4-19.2s-0.6-12.9-1.4-19.2l41.4-32.4
	c3.7-2.9,4.7-8.2,2.4-12.5l-39.2-67.8c-2.4-4.3-7.6-5.9-12-4.3l-48.8,19.6c-10.2-7.8-21.2-14.3-33.1-19.2l-7.5-51.5
	C248.3,6,244.2,3,239.3,3h-78.4c-4.9,0-9,3-9.6,7.7l-7.5,51.7c-12,4.9-22.9,11.4-33.1,19.1L61.8,61.9c-4.5-1.8-9.6,0-12,4.3
	L10.6,134c-2.5,4.3-1.4,9.6,2.4,12.5l41.4,32.3c-0.8,6.3-1.4,12.7-1.4,19.2s0.6,12.9,1.4,19.2L13,249.6c-3.7,2.9-4.7,8.2-2.4,12.5
	L49.9,330c2.4,4.3,7.6,5.9,12,4.3l48.8-19.6c10.2,7.8,21.2,14.3,33.1,19.2l7.5,52.4c0.6,4.7,4.7,8.7,9.6,8.7h78.4c4.9,0,9-4,9.6-8.7
	l7.5-52.2c12-4.9,22.9-11.7,33.1-19.3l48.8,19.6c4.5,1.8,9.6,0,12-4.3l39.2-67.9c2.4-4.3,1.4-9.6-2.4-12.6L345.7,217.3z M200,266.7
	c-37.8,0-68.6-30.8-68.6-68.6s30.8-68.6,68.6-68.6s68.6,30.8,68.6,68.6S237.9,266.7,200,266.7z"/>
</svg>
